<?xml version="1.0" standalone="no"?><!DOCTYPE svg PUBLIC "-//W3C//DTD SVG 1.1//EN"
        "http://www.w3.org/Graphics/SVG/1.1/DTD/svg11.dtd">
<svg t="1681197464600" class="icon" viewBox="0 0 1024 1024" version="1.1" xmlns="http://www.w3.org/2000/svg" p-id="7366"
     width="200" height="200" xmlns:xlink="http://www.w3.org/1999/xlink">
    <path d="M507.221333 124.586667C331.434667 126.976 187.733333 271.018667 185.685333 447.146667c-1.024 87.04 32.085333 166.570667 87.04 225.621333l17.408 17.408 200.362667 200.362667c11.946667 11.946667 30.72 11.946667 42.666667 0l218.112-218.112c53.930667-58.368 87.04-136.192 87.04-221.866667 0-181.589333-148.821333-328.704-331.093334-325.973333z m214.016 450.56c-1.024 2.048-2.389333 4.096-3.413333 6.144-0.682667 1.024-1.024 2.048-1.706667 2.730666-2.048 3.413333-4.096 6.485333-6.144 9.557334-0.682667 1.365333-1.706667 2.389333-2.389333 3.754666-7.850667 11.264-16.725333 21.845333-26.624 31.744-43.008 43.008-102.741333 69.973333-168.618667 69.973334s-125.610667-26.624-168.618666-69.973334c-9.898667-9.898667-19.114667-20.821333-26.965334-32.085333l-2.048-3.072c-2.048-3.072-4.096-6.485333-6.144-9.557333-0.682667-1.024-1.365333-2.389333-2.048-3.413334-1.024-2.048-2.389333-4.096-3.413333-6.144 0 0 0-0.341333-0.341333-0.341333-18.432-33.792-28.672-72.362667-28.672-113.664-0.682667-132.096 106.154667-238.933333 237.909333-238.933333s238.592 106.837333 238.592 238.592c0 41.642667-10.922667 80.554667-29.354667 114.688z"
          fill="#42C271" opacity=".7" p-id="7367"></path>
    <path d="M707.242667 597.333333c-7.850667 11.264-16.725333 21.845333-26.624 31.744-43.008 43.008-102.741333 69.973333-168.618667 69.973334s-125.610667-26.624-168.618667-69.973334c-9.898667-9.898667-19.114667-20.821333-26.965333-32.085333 0.341333 0 0.341333 0 0.682667-0.341333 19.456-58.026667 99.328-101.717333 194.901333-101.717334 96.256 0 176.128 44.032 195.242667 102.4z"
          fill="#42C271" opacity=".7" p-id="7368"></path>
    <path d="M707.242667 597.333333c-7.850667 11.264-16.725333 21.845333-26.624 31.744-43.008 43.008-102.741333 69.973333-168.618667 69.973334s-125.610667-26.624-168.618667-69.973334c-9.898667-9.898667-19.114667-20.821333-26.965333-32.085333 0.341333 0 0.341333 0 0.682667-0.341333 19.456-58.026667 99.328-101.717333 194.901333-101.717334 96.256 0 176.128 44.032 195.242667 102.4z"
          fill="#42C271" opacity=".7" p-id="7369"></path>
    <path d="M603.477333 403.456c0-50.517333-40.96-91.818667-91.477333-91.818667s-91.477333 40.96-91.477333 91.818667c0 25.258667 10.24 48.128 26.965333 64.853333s39.594667 26.965333 64.853333 26.965334 48.128-10.24 64.853334-26.965334c16.042667-16.725333 26.282667-39.594667 26.282666-64.853333z"
          fill="#42C271" opacity=".7" p-id="7370"></path>
</svg>